<?xml version="1.0" encoding="utf-8"?>
<!-- Generator: Adobe Illustrator 16.0.0, SVG Export Plug-In . SVG Version: 6.00 Build 0)  -->
<!DOCTYPE svg PUBLIC "-//W3C//DTD SVG 1.1//EN" "http://www.w3.org/Graphics/SVG/1.1/DTD/svg11.dtd">
<svg version="1.1" id="Layer_1" xmlns="http://www.w3.org/2000/svg" xmlns:xlink="http://www.w3.org/1999/xlink" x="0px" y="0px"
	 width="103px" height="34.738px" viewBox="0 0 103 34.738" enable-background="new 0 0 103 34.738" xml:space="preserve">
<g>
	<path fill-rule="evenodd" clip-rule="evenodd" fill="#FFFFFF" d="M75.606,14.154c-0.172-0.774-0.521-1.47-1.045-2.071
		c-0.714-0.82-1.64-1.288-2.667-1.576c-1.062-0.299-2.152-0.375-3.248-0.379c-1.371-0.006-2.741-0.001-4.112-0.001
		c-0.092,0-0.183,0-0.305,0c-0.958,4.528-1.914,9.045-2.879,13.603c0.154,0,0.254,0,0.354,0c1.527,0,3.054-0.001,4.581,0
		c0.874,0.001,1.747-0.01,2.618-0.098c1.012-0.102,1.999-0.303,2.928-0.73c1.408-0.649,2.502-1.635,3.18-3.046
		C75.889,18.028,76.043,16.119,75.606,14.154z M70.545,19.927c-0.529,0.542-1.198,0.845-1.937,0.986
		c-0.974,0.187-1.958,0.118-2.938,0.128c-0.021-0.244,1.507-7.548,1.732-8.294c0.81,0.026,1.609-0.058,2.402,0.111
		c1.228,0.261,2.089,1.13,2.264,2.37C72.324,17.034,71.824,18.615,70.545,19.927z"/>
	<path fill-rule="evenodd" clip-rule="evenodd" fill="#FFFFFF" d="M48.526,11.287c-0.424-0.416-0.944-0.664-1.503-0.837
		c-0.853-0.265-1.734-0.315-2.618-0.321c-1.592-0.01-3.183-0.003-4.775-0.002c-0.08,0-0.16,0.01-0.233,0.016
		c-0.021,0.042-0.04,0.064-0.045,0.09c-0.942,4.44-1.882,8.879-2.823,13.319c-0.007,0.035-0.004,0.073-0.004,0.109
		c0,0.009,0.005,0.018,0.009,0.026c0.004,0.007,0.012,0.013,0.028,0.031c1.146,0,2.303,0,3.485,0
		c0.379-1.797,0.757-3.59,1.137-5.395c0.483,0.014,0.934-0.037,1.379,0.065c0.398,0.091,0.679,0.315,0.815,0.705
		c0.04,0.112,0.075,0.227,0.101,0.343c0.239,1.085,0.476,2.172,0.714,3.258c0.074,0.339,0.151,0.678,0.227,1.02
		c1.188,0,2.352,0,3.555,0c-0.055-0.265-0.101-0.489-0.15-0.712c-0.313-1.427-0.621-2.855-0.94-4.281
		c-0.149-0.668-0.473-1.232-1.043-1.637c-0.042-0.03-0.078-0.07-0.145-0.131c0.114-0.022,0.194-0.037,0.272-0.054
		c0.367-0.079,0.745-0.127,1.101-0.242c0.862-0.28,1.559-0.784,1.968-1.618c0.322-0.656,0.385-1.353,0.295-2.072
		C49.253,12.315,48.998,11.75,48.526,11.287z M44.921,15.36c-0.39,0.244-0.821,0.372-1.274,0.398
		c-0.621,0.036-1.244,0.044-1.933,0.066c0.222-1.103,0.431-2.143,0.646-3.218c0.283,0,0.547-0.01,0.81,0.002
		c0.467,0.023,0.938,0.025,1.397,0.1c0.475,0.078,0.865,0.334,1.011,0.828C45.785,14.238,45.586,14.943,44.921,15.36z"/>
	<path fill-rule="evenodd" clip-rule="evenodd" fill="#FFFFFF" d="M87.595,10.126c-1.288,0-2.576,0.006-3.863-0.005
		c-0.229-0.002-0.359,0.064-0.479,0.268c-1.64,2.79-3.288,5.574-4.935,8.359c-0.931,1.575-1.861,3.149-2.791,4.725
		c-0.043,0.073-0.077,0.15-0.13,0.256c0.124,0,0.197,0,0.271,0c1.076,0,2.152-0.008,3.228,0.007c0.229,0.002,0.343-0.082,0.446-0.27
		c0.446-0.814,0.908-1.62,1.355-2.434c0.087-0.158,0.186-0.218,0.367-0.217c1.609,0.007,3.22,0.004,4.829,0.005
		c0.08,0,0.159,0.012,0.253,0.02c0.121,0.974,0.239,1.926,0.357,2.874c1.213,0,2.386,0,3.599,0
		c-0.73-4.534-1.458-9.047-2.189-13.587C87.777,10.126,87.687,10.126,87.595,10.126z M82.287,18.244
		c-0.005-0.008-0.011-0.016-0.014-0.023c-0.003-0.008-0.007-0.019-0.004-0.026c0.016-0.043,0.028-0.088,0.05-0.127
		c0.945-1.713,1.892-3.426,2.839-5.139c0.007-0.012,0.03-0.014,0.082-0.037c0.213,1.783,0.424,3.554,0.633,5.321
		C85.664,18.281,82.648,18.302,82.287,18.244z"/>
	<path fill-rule="evenodd" clip-rule="evenodd" fill="#FFFFFF" d="M59.953,17.824c0.17-0.814,0.337-1.609,0.512-2.444
		c-0.151,0-0.26,0-0.368,0c-1.628,0-3.256,0-4.885-0.001c-0.105,0-0.21-0.009-0.346-0.015c0.193-0.929,0.378-1.815,0.566-2.716
		c0.696,0,1.357,0,2.019,0c0.653,0,1.306,0.003,1.959-0.001c0.659-0.003,1.318,0.016,1.98-0.012
		c0.181-0.843,0.356-1.657,0.536-2.494c-3.207,0-6.376,0-9.567,0c-0.964,4.518-1.925,9.025-2.895,13.574c3.29,0,6.525,0,9.792,0
		c0.177-0.831,0.354-1.661,0.542-2.536c-0.161,0-0.278,0-0.395,0c-1.813,0-3.625,0.001-5.438,0.001
		c-0.104,0-0.209-0.014-0.332-0.022c0.239-1.132,0.471-2.225,0.707-3.334C56.225,17.824,58.081,17.824,59.953,17.824z"/>
	<path fill-rule="evenodd" clip-rule="evenodd" fill="#FFFFFF" d="M97.215,12.783c0.225-0.102,0.457-0.202,0.697-0.25
		c1.22-0.245,2.413-0.104,3.584,0.292c0.214,0.072,0.424,0.16,0.66,0.25c0.28-0.88,0.556-1.743,0.844-2.646
		c-0.267-0.077-0.492-0.155-0.724-0.208c-1.553-0.354-3.125-0.454-4.711-0.34c-0.823,0.059-1.618,0.25-2.355,0.625
		c-1.39,0.708-2.317,1.762-2.456,3.38c-0.078,0.901,0.092,1.74,0.68,2.459c0.387,0.473,0.885,0.799,1.438,1.042
		c0.521,0.229,1.054,0.433,1.572,0.667c0.445,0.201,0.865,0.45,1.202,0.814c0.419,0.451,0.449,1.041,0.083,1.535
		c-0.216,0.291-0.51,0.474-0.837,0.607c-0.851,0.346-1.738,0.37-2.633,0.273c-0.783-0.085-1.521-0.34-2.232-0.672
		c-0.079-0.037-0.162-0.065-0.262-0.104c-0.263,0.943-0.518,1.858-0.778,2.797c0.389,0.114,0.737,0.23,1.093,0.318
		c1.566,0.386,3.153,0.508,4.761,0.337c0.885-0.094,1.733-0.319,2.523-0.737c0.753-0.398,1.393-0.928,1.845-1.658
		c0.58-0.938,0.748-1.966,0.6-3.047c-0.079-0.576-0.296-1.107-0.713-1.522c-0.271-0.271-0.576-0.515-0.894-0.731
		c-0.686-0.467-1.44-0.808-2.205-1.126c-0.383-0.16-0.753-0.344-1.064-0.625c-0.385-0.347-0.469-0.81-0.229-1.246
		C96.822,13.053,96.994,12.883,97.215,12.783z"/>
	<path fill-rule="evenodd" clip-rule="evenodd" fill="#FFFFFF" d="M79.142,26.804c-0.062,0.236-0.119,0.458-0.178,0.679
		c-0.061,0.231-0.118,0.463-0.185,0.692c-0.062,0.21-0.084,0.435-0.221,0.685c-0.195-0.727-0.372-1.39-0.55-2.055
		c-0.371,0-0.725,0-1.074,0c-0.065,0.253-0.063,3.223,0.003,3.463c0.218,0,0.441,0,0.698,0c0-0.685,0-1.349,0-2.014
		c0.021-0.002,0.042-0.005,0.063-0.007c0.17,0.678,0.341,1.356,0.509,2.025c0.266,0,0.493,0,0.727,0
		c0.209-0.675,0.316-1.365,0.533-2.022c0.022,0.004,0.046,0.007,0.069,0.011c0,0.667,0,1.333,0,2.01
		c0.253,0.019,0.478,0.047,0.695-0.019c0.068-0.335,0.05-3.249-0.021-3.448C79.858,26.804,79.504,26.804,79.142,26.804z"/>
	<path fill-rule="evenodd" clip-rule="evenodd" fill="#FFFFFF" d="M69.456,28.79c0.562,0,1.101,0,1.645,0
		c0.036-0.24,0.048-0.445-0.011-0.68c-0.545,0-1.083,0-1.627,0c-0.041-0.226-0.057-0.42,0.01-0.623
		c0.59-0.043,1.176,0.022,1.775-0.039c-0.012-0.238,0.051-0.446-0.045-0.645c-0.845,0-1.678,0-2.534,0c0,1.172,0,2.308,0,3.439
		c0.256,0.065,2.395,0.063,2.635-0.004c0-0.2,0-0.404,0-0.638c-0.626,0-1.23,0-1.848,0C69.456,29.322,69.456,29.073,69.456,28.79z"
		/>
	<path fill-rule="evenodd" clip-rule="evenodd" fill="#FFFFFF" d="M96.168,28.296c-0.184-0.08-0.382-0.127-0.574-0.188
		c-0.202-0.063-0.405-0.117-0.604-0.187c-0.098-0.034-0.179-0.104-0.179-0.222c0.001-0.132,0.099-0.188,0.205-0.231
		c0.399-0.162,0.729-0.02,0.878,0.376c0.006,0.017,0.021,0.029,0.034,0.044c0.163,0,0.326,0.002,0.49-0.001
		c0.08-0.001,0.161-0.013,0.239-0.02c0.027-0.46-0.207-0.854-0.624-1.014c-0.443-0.171-0.9-0.177-1.348-0.01
		c-0.379,0.141-0.602,0.422-0.631,0.827c-0.031,0.418,0.154,0.735,0.523,0.924c0.194,0.099,0.411,0.155,0.62,0.223
		c0.184,0.06,0.372,0.101,0.556,0.162c0.311,0.103,0.279,0.401,0.078,0.556c-0.352,0.271-0.923,0.117-1.089-0.292
		c-0.027-0.066-0.051-0.133-0.079-0.207c-0.248,0.022-0.486-0.021-0.707,0.077c-0.017,0.487,0.254,0.927,0.697,1.099
		c0.49,0.19,0.993,0.186,1.481-0.006c0.419-0.165,0.628-0.506,0.64-0.946C96.788,28.813,96.585,28.476,96.168,28.296z"/>
	<path fill-rule="evenodd" clip-rule="evenodd" fill="#FFFFFF" d="M54.485,28.294c-0.185-0.08-0.383-0.127-0.575-0.187
		c-0.202-0.063-0.406-0.118-0.604-0.188c-0.098-0.035-0.177-0.105-0.175-0.224c0.002-0.118,0.085-0.174,0.182-0.219
		c0.391-0.178,0.749-0.032,0.902,0.37c0.006,0.016,0.022,0.028,0.051,0.063c0.229-0.012,0.473-0.024,0.714-0.037
		c0.019-0.477-0.213-0.862-0.629-1.021c-0.445-0.169-0.901-0.176-1.349-0.007c-0.378,0.142-0.6,0.424-0.628,0.829
		c-0.029,0.417,0.157,0.735,0.527,0.922c0.194,0.098,0.411,0.154,0.62,0.222c0.184,0.059,0.372,0.101,0.555,0.162
		c0.306,0.103,0.278,0.4,0.072,0.557c-0.354,0.269-0.921,0.114-1.087-0.298c-0.027-0.065-0.053-0.132-0.084-0.209
		c-0.238,0.015-0.464,0.029-0.702,0.044c-0.01,0.536,0.259,0.969,0.702,1.139c0.491,0.188,0.994,0.184,1.481-0.009
		c0.419-0.167,0.626-0.508,0.638-0.948C55.107,28.81,54.902,28.474,54.485,28.294z"/>
	<path fill-rule="evenodd" clip-rule="evenodd" fill="#FFFFFF" d="M38.755,28.312c-0.19-0.087-0.397-0.139-0.598-0.202
		s-0.405-0.116-0.604-0.186c-0.109-0.038-0.191-0.115-0.18-0.247c0.01-0.119,0.099-0.168,0.196-0.208
		c0.406-0.167,0.737-0.021,0.895,0.393c0.006,0.015,0.025,0.024,0.053,0.05c0.222-0.013,0.457-0.026,0.689-0.039
		c0.04-0.527-0.264-0.945-0.772-1.077c-0.343-0.089-0.69-0.094-1.036-0.007c-0.45,0.113-0.741,0.434-0.781,0.855
		c-0.042,0.443,0.177,0.815,0.621,1c0.236,0.098,0.489,0.153,0.734,0.229c0.131,0.041,0.269,0.07,0.392,0.128
		c0.21,0.1,0.244,0.304,0.086,0.474c-0.042,0.046-0.097,0.086-0.153,0.114c-0.421,0.202-0.864,0.016-1.02-0.424
		c-0.012-0.034-0.027-0.067-0.054-0.134c-0.197,0.011-0.379,0.02-0.562,0.032c-0.123,0.008-0.18,0.062-0.155,0.198
		c0.077,0.424,0.27,0.77,0.681,0.938c0.515,0.211,1.046,0.208,1.554-0.015c0.398-0.174,0.587-0.512,0.59-0.948
		C39.334,28.806,39.144,28.49,38.755,28.312z"/>
	<path fill-rule="evenodd" clip-rule="evenodd" fill="#FFFFFF" d="M86.763,26.794c-0.448,1.141-0.896,2.281-1.35,3.432
		c0.231,0.109,0.445,0.042,0.649,0.063c0.121,0.012,0.186-0.046,0.224-0.157c0.053-0.156,0.115-0.309,0.17-0.465
		c0.03-0.083,0.066-0.15,0.17-0.149c0.384,0.001,0.769,0,1.152,0c0.11,0.268,0.211,0.511,0.317,0.768
		c0.271-0.011,0.533,0.039,0.829-0.043c-0.474-1.171-0.936-2.314-1.395-3.449C87.26,26.794,87.021,26.794,86.763,26.794z
		 M86.774,28.809c0.118-0.32,0.225-0.606,0.353-0.953c0.174,0.335,0.258,0.634,0.386,0.953
		C87.255,28.809,87.042,28.809,86.774,28.809z"/>
	<path fill-rule="evenodd" clip-rule="evenodd" fill="#FFFFFF" d="M91.609,10.046c0.072-0.296,0.025-0.587-0.038-0.873
		c-0.157-0.707-0.329-1.411-0.496-2.116c-0.078-0.329-0.162-0.657-0.25-1.01c-0.387,0.118-0.702,0.281-0.96,0.54
		c-0.28,0.28-0.39,0.622-0.305,1.008c0.047,0.213,0.111,0.428,0.206,0.624c0.381,0.784,0.776,1.561,1.167,2.34
		c0.028,0.055,0.068,0.104,0.107,0.162C91.354,10.586,91.531,10.36,91.609,10.046z"/>
	<path fill-rule="evenodd" clip-rule="evenodd" fill="#FFFFFF" d="M63.173,26.804c-0.91,0-1.806,0-2.722,0c0,0.221,0,0.425,0,0.664
		c0.327,0,0.635,0,0.987,0c0,0.961,0,1.867,0,2.81c0.188,0.004,0.349,0.012,0.511,0.01c0.266-0.001,0.274-0.01,0.274-0.283
		c0.001-0.735,0-1.469,0-2.204c0-0.099,0-0.196,0-0.304c0.344-0.057,0.667,0.021,0.998-0.061
		C63.199,27.21,63.274,27.002,63.173,26.804z"/>
	<path fill-rule="evenodd" clip-rule="evenodd" fill="#FFFFFF" d="M46.005,26.796c-0.016,1.167-0.005,2.309-0.008,3.47
		c0.281,0.026,0.521,0.049,0.755-0.007c0.067-0.508,0.039-3.272-0.035-3.462C46.502,26.796,46.283,26.796,46.005,26.796z"/>
	<path fill-rule="evenodd" clip-rule="evenodd" fill="#FFFFFF" d="M34.307,7.372l0.192-1.202c0.166-1.04-0.545-2.021-1.585-2.188
		L8.126,0.024C7.087-0.143,6.104,0.569,5.938,1.61L5.175,6.392L5.151,6.517H0.149C0.066,6.517,0,6.583,0,6.666
		c0,0,0,14.311,0,19.329s2.97,8.744,8.491,8.744c7.055,0,19.371,0,19.371,0c0.083,0,0.149-0.067,0.149-0.149v-2.09l0.343,0.044
		c0.102,0.017,0.204,0.024,0.306,0.024c0.399,0,0.787-0.125,1.117-0.364c0.414-0.299,0.686-0.742,0.766-1.246l0.796-4.985
		c1.133-0.316,2.153-0.836,2.954-1.72c1.071-1.183,1.65-2.575,1.686-4.178c0.014-0.605-0.093-1.19-0.361-1.739
		c-0.539-1.103-1.421-1.805-2.567-2.201c-0.041-0.014-0.084-0.032-0.132-0.052l0.016-0.1c0.043-0.018,0.082-0.034,0.117-0.05
		c0.334-0.153,0.676-0.291,0.999-0.464c0.973-0.521,1.706-1.273,2.114-2.312c0.316-0.804,0.401-1.638,0.291-2.493
		C36.265,9.203,35.559,8.1,34.307,7.372z M30.187,30.901c-0.065,0.409-0.287,0.768-0.622,1.011s-0.746,0.342-1.16,0.275
		l-1.909-0.246L3.741,28.308c-0.936-0.15-1.574-1.029-1.424-1.965L5.299,7.668l0.229-1.214l0.764-4.787
		C6.428,0.822,7.224,0.245,8.07,0.379l24.787,3.958c0.845,0.135,1.422,0.932,1.287,1.777l-0.173,1.084
		c-0.444-0.186-0.886-0.333-1.188-0.415c-0.552-0.149-1.119-0.223-1.689-0.245c-2.979-0.118-5.961-0.035-8.941-0.057
		c-0.027,0-0.055,0.006-0.081,0.009c-0.102,0.195-4.101,19.127-4.2,19.894c0.079,0.007,0.156,0.021,0.234,0.021
		c3.331-0.003,6.661-0.001,9.991-0.013c0.819-0.003,1.633-0.097,2.441-0.239c0.069-0.012,0.14-0.018,0.245-0.031l0.104-0.027
		c0.026-0.006,0.046-0.012,0.07-0.018L30.187,30.901z M28.892,18.005c0.525,0.003,1.046,0.076,1.538,0.274
		c0.708,0.286,1.146,0.807,1.31,1.555c0.01,0.045,0.025,0.092,0.02,0.136c-0.085,0.669-0.087,1.356-0.542,1.93
		c-0.441,0.556-0.989,0.925-1.679,1.083c-0.694,0.157-1.402,0.197-2.109,0.205c-1.526,0.019-3.052,0.011-4.579,0.013
		c-0.062,0-0.124-0.014-0.214-0.025c0.358-1.721,0.714-3.428,1.074-5.156c0.085-0.007,0.165-0.019,0.244-0.019
		C25.601,18,27.246,17.997,28.892,18.005z M24.452,14.509c0.132-0.798,0.321-1.57,0.479-2.348c0.156-0.773,0.326-1.543,0.496-2.346
		c0.126,0,0.217,0,0.309,0c1.416,0.006,2.832,0.007,4.249,0.021c0.292,0.002,0.592,0.019,0.876,0.084
		c1.511,0.351,1.77,1.555,1.479,2.551c-0.304,1.042-1.046,1.607-2.073,1.841c-0.73,0.166-1.476,0.198-2.22,0.209
		c-1.122,0.017-2.244,0.007-3.366,0.007C24.617,14.528,24.554,14.518,24.452,14.509z"/>
	<path fill-rule="evenodd" clip-rule="evenodd" fill="#FFFFFF" d="M18.398,16.111c0.154-0.747,0.301-1.496,0.458-2.242
		c0.228-1.08,0.465-2.157,0.694-3.237c0.177-0.836,0.348-1.674,0.522-2.511c0.096-0.459,0.194-0.917,0.287-1.377
		c0.014-0.067,0.002-0.14,0.002-0.226c-0.088-0.009-0.16-0.023-0.231-0.023c-0.432-0.002-0.865-0.003-1.297,0
		c-0.218,0.001-0.248,0.027-0.293,0.243c-0.152,0.727-0.302,1.455-0.452,2.182c-0.194,0.942-0.385,1.885-0.58,2.828
		c-0.232,1.121-0.466,2.243-0.7,3.364c-0.187,0.897-0.375,1.794-0.563,2.69c-0.126,0.601-0.255,1.201-0.38,1.801
		c-0.204,0.978-0.402,1.956-0.61,2.933c-0.225,1.058-0.458,2.114-0.685,3.172c-0.044,0.204-0.075,0.411-0.114,0.63
		c0.069,0.016,0.119,0.038,0.17,0.038c0.469,0.003,0.938-0.002,1.407,0.004c0.15,0.002,0.215-0.067,0.244-0.202
		c0.037-0.171,0.087-0.339,0.123-0.51c0.147-0.721,0.286-1.443,0.436-2.163c0.231-1.107,0.47-2.213,0.705-3.319
		c0.176-0.828,0.349-1.656,0.523-2.483C18.175,17.172,18.289,16.642,18.398,16.111z"/>
	<path fill-rule="evenodd" clip-rule="evenodd" fill="#FFFFFF" d="M15.294,16.626c0.206-0.99,0.401-1.982,0.608-2.972
		c0.281-1.341,0.57-2.68,0.855-4.02c0.205-0.962,0.41-1.925,0.612-2.887c0.014-0.068,0.009-0.14,0.013-0.205
		c-0.046-0.021-0.071-0.042-0.096-0.042c-0.506-0.003-1.012-0.004-1.518-0.007c-0.098,0-0.155,0.044-0.178,0.137
		c-0.016,0.063-0.035,0.124-0.048,0.187c-0.146,0.69-0.292,1.38-0.437,2.07c-0.165,0.78-0.332,1.56-0.495,2.34
		c-0.242,1.158-0.479,2.316-0.723,3.473c-0.14,0.664-0.291,1.325-0.429,1.989c-0.212,1.022-0.416,2.047-0.629,3.07
		c-0.076,0.368-0.175,0.731-0.252,1.099c-0.176,0.843-0.341,1.689-0.517,2.532c-0.192,0.924-0.392,1.846-0.585,2.77
		c-0.012,0.057,0.008,0.122,0.015,0.194c0.077,0.009,0.14,0.022,0.202,0.022c0.423,0.002,0.846,0.002,1.27,0.001
		c0.285-0.001,0.292-0.005,0.348-0.274c0.264-1.26,0.526-2.521,0.789-3.781c0.195-0.936,0.389-1.872,0.585-2.808
		C14.887,18.551,15.094,17.589,15.294,16.626z"/>
	<path fill-rule="evenodd" clip-rule="evenodd" fill="#FFFFFF" d="M12.252,16.776c0.218-1.044,0.437-2.088,0.658-3.131
		c0.166-0.783,0.337-1.564,0.502-2.347c0.169-0.8,0.335-1.602,0.503-2.402c0.143-0.684,0.289-1.368,0.431-2.052
		c0.059-0.285,0.007-0.348-0.282-0.35c-0.387-0.002-0.773-0.002-1.159,0c-0.273,0.001-0.283,0.001-0.343,0.282
		c-0.156,0.726-0.301,1.454-0.454,2.18c-0.201,0.959-0.408,1.918-0.608,2.878c-0.221,1.059-0.437,2.118-0.657,3.177
		c-0.185,0.888-0.369,1.777-0.556,2.665c-0.163,0.771-0.332,1.541-0.494,2.312c-0.185,0.878-0.365,1.758-0.55,2.637
		c-0.224,1.067-0.452,2.133-0.676,3.2c-0.035,0.166-0.059,0.334-0.094,0.537c0.147,0.007,0.229,0.015,0.31,0.015
		c0.387,0.001,0.773,0.002,1.159,0c0.308-0.001,0.309-0.002,0.374-0.313c0.187-0.891,0.372-1.782,0.558-2.673
		c0.213-1.017,0.428-2.033,0.64-3.05C11.761,19.152,12.004,17.964,12.252,16.776z"/>
</g>
</svg>
